<?xml version="1.0" encoding="utf-8"?>
<!-- Generator: Adobe Illustrator 16.0.0, SVG Export Plug-In . SVG Version: 6.00 Build 0)  -->
<!DOCTYPE svg PUBLIC "-//W3C//DTD SVG 1.1//EN" "http://www.w3.org/Graphics/SVG/1.1/DTD/svg11.dtd">
<svg version="1.1" id="Layer_1" xmlns="http://www.w3.org/2000/svg" xmlns:xlink="http://www.w3.org/1999/xlink" x="0px" y="0px"
	 width="369.105px" height="297.255px" viewBox="0 0 369.105 297.255" enable-background="new 0 0 369.105 297.255"
	 xml:space="preserve">
<g>
	<g enable-background="new    ">
		<path d="M123.566,116.683h-28.54L58.84,64.773c-2.681,0.11-4.862,0.164-6.543,0.164c-0.685,0-1.42-0.013-2.208-0.041
			c-0.788-0.027-1.604-0.068-2.444-0.123v32.259c0,6.988,0.736,11.327,2.208,13.019c1.997,2.402,4.992,3.603,8.987,3.603h4.179
			v3.029H17.214v-3.029h4.021c4.52,0,7.752-1.528,9.697-4.585c1.104-1.691,1.655-5.703,1.655-12.036V25.309
			c0-6.986-0.736-11.326-2.207-13.018c-2.05-2.401-5.099-3.603-9.146-3.603h-4.021V5.659h38.945c11.354,0,19.723,0.859,25.11,2.579
			c5.387,1.719,9.959,4.885,13.718,9.498c3.757,4.613,5.637,10.111,5.637,16.498c0,6.824-2.142,12.746-6.425,17.767
			c-4.284,5.023-10.919,8.57-19.907,10.644l22.075,31.85c5.046,7.315,9.382,12.173,13.008,14.574
			c3.627,2.402,8.357,3.93,14.191,4.585V116.683z M47.645,59.615c0.998,0,1.865,0.014,2.603,0.041
			c0.735,0.028,1.34,0.041,1.812,0.041c10.196,0,17.883-2.293,23.061-6.878c5.176-4.585,7.766-10.425,7.766-17.521
			c0-6.931-2.089-12.568-6.268-16.907s-9.711-6.509-16.596-6.509c-3.049,0-7.174,0.52-12.378,1.556V59.615z"/>
	</g>
	<g enable-background="new    ">
		<path fill="none" stroke="#FFFFFF" stroke-width="2" stroke-miterlimit="10" d="M123.566,116.683h-28.54L58.84,64.773
			c-2.681,0.11-4.862,0.164-6.543,0.164c-0.685,0-1.42-0.013-2.208-0.041c-0.788-0.027-1.604-0.068-2.444-0.123v32.259
			c0,6.988,0.736,11.327,2.208,13.019c1.997,2.402,4.992,3.603,8.987,3.603h4.179v3.029H17.214v-3.029h4.021
			c4.52,0,7.752-1.528,9.697-4.585c1.104-1.691,1.655-5.703,1.655-12.036V25.309c0-6.986-0.736-11.326-2.207-13.018
			c-2.05-2.401-5.099-3.603-9.146-3.603h-4.021V5.659h38.945c11.354,0,19.723,0.859,25.11,2.579
			c5.387,1.719,9.959,4.885,13.718,9.498c3.757,4.613,5.637,10.111,5.637,16.498c0,6.824-2.142,12.746-6.425,17.767
			c-4.284,5.023-10.919,8.57-19.907,10.644l22.075,31.85c5.046,7.315,9.382,12.173,13.008,14.574
			c3.627,2.402,8.357,3.93,14.191,4.585V116.683z M47.645,59.615c0.998,0,1.865,0.014,2.603,0.041
			c0.735,0.028,1.34,0.041,1.812,0.041c10.196,0,17.883-2.293,23.061-6.878c5.176-4.585,7.766-10.425,7.766-17.521
			c0-6.931-2.089-12.568-6.268-16.907s-9.711-6.509-16.596-6.509c-3.049,0-7.174,0.52-12.378,1.556V59.615z"/>
	</g>
	<g enable-background="new    ">
		<path d="M133.769,86.841c7.543,7.912,15.33,12.177,23.357,12.794c8.027,0.619,14.549-1.679,19.566-6.889
			c3.346-3.474,5.332-7.448,5.965-11.926c0.631-4.477-0.445-9.9-3.232-16.267l2.844-0.637c4.311,6.099,6.678,13.267,7.105,21.507
			c0.428,8.241-2.184,15.293-7.832,21.16c-6.131,6.368-13.768,9.34-22.912,8.915c-9.141-0.423-17.744-4.825-25.811-13.2
			c-8.732-9.068-13.305-18.466-13.713-28.193c-0.408-9.726,2.77-18.101,9.533-25.125c5.723-5.943,12.311-8.867,19.762-8.771
			c7.451,0.097,14.336,3.426,20.654,9.987L133.769,86.841z M130.534,83.484l23.637-24.546c-3.457-3.203-6.15-5.19-8.082-5.963
			c-3.012-1.196-6.031-1.457-9.059-0.782c-3.029,0.675-5.549,2.055-7.555,4.139c-3.086,3.204-4.646,7.314-4.684,12.332
			S126.671,78.621,130.534,83.484z"/>
	</g>
	<g enable-background="new    ">
		<path fill="none" stroke="#FFFFFF" stroke-width="2" stroke-miterlimit="10" d="M133.769,86.841
			c7.543,7.912,15.33,12.177,23.357,12.794c8.027,0.619,14.549-1.679,19.566-6.889c3.346-3.474,5.332-7.448,5.965-11.926
			c0.631-4.477-0.445-9.9-3.232-16.267l2.844-0.637c4.311,6.099,6.678,13.267,7.105,21.507c0.428,8.241-2.184,15.293-7.832,21.16
			c-6.131,6.368-13.768,9.34-22.912,8.915c-9.141-0.423-17.744-4.825-25.811-13.2c-8.732-9.068-13.305-18.466-13.713-28.193
			c-0.408-9.726,2.77-18.101,9.533-25.125c5.723-5.943,12.311-8.867,19.762-8.771c7.451,0.097,14.336,3.426,20.654,9.987
			L133.769,86.841z M130.534,83.484l23.637-24.546c-3.457-3.203-6.15-5.19-8.082-5.963c-3.012-1.196-6.031-1.457-9.059-0.782
			c-3.029,0.675-5.549,2.055-7.555,4.139c-3.086,3.204-4.646,7.314-4.684,12.332S126.671,78.621,130.534,83.484z"/>
	</g>
	<g enable-background="new    ">
		<path d="M196.349,226.792c7.544,7.912,15.33,12.177,23.357,12.793c8.027,0.619,14.55-1.678,19.567-6.889
			c3.345-3.473,5.332-7.447,5.965-11.926c0.632-4.477-0.446-9.898-3.232-16.267l2.843-0.638c4.311,6.099,6.679,13.267,7.107,21.508
			c0.427,8.24-2.185,15.293-7.833,21.158c-6.132,6.369-13.769,9.342-22.911,8.916c-9.143-0.423-17.746-4.824-25.812-13.199
			c-8.732-9.068-13.305-18.467-13.713-28.193c-0.409-9.726,2.769-18.102,9.533-25.125c5.723-5.943,12.311-8.867,19.762-8.771
			c7.451,0.098,14.336,3.426,20.654,9.986L196.349,226.792z M193.115,223.435l23.637-24.547c-3.456-3.203-6.151-5.19-8.083-5.963
			c-3.01-1.196-6.029-1.456-9.059-0.781c-3.029,0.676-5.547,2.055-7.554,4.139c-3.085,3.204-4.646,7.314-4.684,12.332
			S189.251,218.572,193.115,223.435z"/>
	</g>
	<g enable-background="new    ">
		<path fill="none" stroke="#FFFFFF" stroke-width="2" stroke-miterlimit="10" d="M196.349,226.792
			c7.544,7.912,15.33,12.177,23.357,12.793c8.027,0.619,14.55-1.678,19.567-6.889c3.345-3.473,5.332-7.447,5.965-11.926
			c0.632-4.477-0.446-9.898-3.232-16.267l2.843-0.638c4.311,6.099,6.679,13.267,7.107,21.508c0.427,8.24-2.185,15.293-7.833,21.158
			c-6.132,6.369-13.769,9.342-22.911,8.916c-9.143-0.423-17.746-4.824-25.812-13.199c-8.732-9.068-13.305-18.467-13.713-28.193
			c-0.409-9.726,2.769-18.102,9.533-25.125c5.723-5.943,12.311-8.867,19.762-8.771c7.451,0.098,14.336,3.426,20.654,9.986
			L196.349,226.792z M193.115,223.435l23.637-24.547c-3.456-3.203-6.151-5.19-8.083-5.963c-3.01-1.196-6.029-1.456-9.059-0.781
			c-3.029,0.676-5.547,2.055-7.554,4.139c-3.085,3.204-4.646,7.314-4.684,12.332S189.251,218.572,193.115,223.435z"/>
	</g>
	<g enable-background="new    ">
		<path d="M216.916,55.439c5.256-5.458,8.357-8.597,9.304-9.416c2.364-2.074,4.913-3.685,7.646-4.831
			c2.732-1.146,5.44-1.719,8.121-1.719c4.52,0,8.408,1.365,11.668,4.094c3.258,2.73,5.439,6.687,6.543,11.872
			c5.413-6.55,9.985-10.849,13.718-12.896c3.731-2.047,7.569-3.07,11.511-3.07c3.836,0,7.239,1.023,10.21,3.07
			c2.969,2.047,5.321,5.391,7.056,10.03c1.155,3.167,1.734,8.134,1.734,14.901v32.259c0,4.695,0.342,7.915,1.025,9.661
			c0.524,1.202,1.497,2.225,2.917,3.07c1.419,0.847,3.73,1.269,6.938,1.269v2.948h-35.635v-2.948h1.498
			c3.101,0,5.519-0.626,7.253-1.883c1.208-0.873,2.075-2.265,2.602-4.176c0.209-0.928,0.315-3.574,0.315-7.942V67.475
			c0-6.112-0.71-10.425-2.129-12.936c-2.05-3.493-5.335-5.24-9.854-5.24c-2.786,0-5.585,0.724-8.396,2.17
			c-2.812,1.447-6.216,4.134-10.21,8.064l-0.157,0.901l0.157,3.521v35.78c0,5.131,0.276,8.324,0.828,9.58
			c0.552,1.256,1.589,2.307,3.114,3.152c1.523,0.847,4.125,1.269,7.805,1.269v2.948h-36.502v-2.948c3.994,0,6.741-0.491,8.238-1.474
			c1.498-0.982,2.535-2.456,3.114-4.421c0.263-0.927,0.395-3.629,0.395-8.105V67.475c0-6.112-0.867-10.507-2.602-13.182
			c-2.313-3.493-5.546-5.24-9.697-5.24c-2.838,0-5.65,0.792-8.436,2.375c-4.363,2.402-7.727,5.104-10.092,8.105v40.201
			c0,4.913,0.328,8.105,0.986,9.58c0.656,1.474,1.628,2.579,2.917,3.316c1.287,0.737,3.902,1.105,7.844,1.105v2.948h-35.714v-2.948
			c3.312,0,5.624-0.368,6.938-1.105c1.312-0.737,2.312-1.91,2.995-3.521c0.683-1.609,1.025-4.734,1.025-9.375V71.078
			c0-8.241-0.236-13.563-0.71-15.966c-0.368-1.801-0.945-3.042-1.734-3.725c-0.788-0.682-1.866-1.023-3.232-1.023
			c-1.472,0-3.232,0.409-5.282,1.228l-1.183-2.948l21.76-9.17h3.39V55.439z"/>
	</g>
	<g enable-background="new    ">
		<path fill="none" stroke="#FFFFFF" stroke-width="2" stroke-miterlimit="10" d="M216.916,55.439
			c5.256-5.458,8.357-8.597,9.304-9.416c2.364-2.074,4.913-3.685,7.646-4.831c2.732-1.146,5.44-1.719,8.121-1.719
			c4.52,0,8.408,1.365,11.668,4.094c3.258,2.73,5.439,6.687,6.543,11.872c5.413-6.55,9.985-10.849,13.718-12.896
			c3.731-2.047,7.569-3.07,11.511-3.07c3.836,0,7.239,1.023,10.21,3.07c2.969,2.047,5.321,5.391,7.056,10.03
			c1.155,3.167,1.734,8.134,1.734,14.901v32.259c0,4.695,0.342,7.915,1.025,9.661c0.524,1.202,1.497,2.225,2.917,3.07
			c1.419,0.847,3.73,1.269,6.938,1.269v2.948h-35.635v-2.948h1.498c3.101,0,5.519-0.626,7.253-1.883
			c1.208-0.873,2.075-2.265,2.602-4.176c0.209-0.928,0.315-3.574,0.315-7.942V67.475c0-6.112-0.71-10.425-2.129-12.936
			c-2.05-3.493-5.335-5.24-9.854-5.24c-2.786,0-5.585,0.724-8.396,2.17c-2.812,1.447-6.216,4.134-10.21,8.064l-0.157,0.901
			l0.157,3.521v35.78c0,5.131,0.276,8.324,0.828,9.58c0.552,1.256,1.589,2.307,3.114,3.152c1.523,0.847,4.125,1.269,7.805,1.269
			v2.948h-36.502v-2.948c3.994,0,6.741-0.491,8.238-1.474c1.498-0.982,2.535-2.456,3.114-4.421c0.263-0.927,0.395-3.629,0.395-8.105
			V67.475c0-6.112-0.867-10.507-2.602-13.182c-2.313-3.493-5.546-5.24-9.697-5.24c-2.838,0-5.65,0.792-8.436,2.375
			c-4.363,2.402-7.727,5.104-10.092,8.105v40.201c0,4.913,0.328,8.105,0.986,9.58c0.656,1.474,1.628,2.579,2.917,3.316
			c1.287,0.737,3.902,1.105,7.844,1.105v2.948h-35.714v-2.948c3.312,0,5.624-0.368,6.938-1.105c1.312-0.737,2.312-1.91,2.995-3.521
			c0.683-1.609,1.025-4.734,1.025-9.375V71.078c0-8.241-0.236-13.563-0.71-15.966c-0.368-1.801-0.945-3.042-1.734-3.725
			c-0.788-0.682-1.866-1.023-3.232-1.023c-1.472,0-3.232,0.409-5.282,1.228l-1.183-2.948l21.76-9.17h3.39V55.439z"/>
	</g>
	<g enable-background="new    ">
		<path d="M347.032,39.474v60.261c0,4.695,0.327,7.819,0.985,9.375c0.656,1.556,1.628,2.716,2.917,3.48
			c1.287,0.765,3.639,1.146,7.056,1.146v2.948h-35.083v-2.948c3.521,0,5.886-0.354,7.096-1.064c1.208-0.709,2.168-1.883,2.877-3.521
			c0.71-1.637,1.064-4.775,1.064-9.416V70.832c0-8.132-0.236-13.399-0.709-15.802c-0.368-1.747-0.946-2.96-1.734-3.644
			c-0.789-0.682-1.866-1.023-3.232-1.023c-1.473,0-3.26,0.409-5.361,1.228l-1.104-2.948l21.759-9.17H347.032z M340.488,0.255
			c2.207,0,4.086,0.806,5.637,2.415c1.55,1.611,2.326,3.562,2.326,5.854c0,2.293-0.776,4.258-2.326,5.896
			c-1.551,1.637-3.43,2.456-5.637,2.456c-2.208,0-4.1-0.819-5.677-2.456c-1.576-1.638-2.365-3.603-2.365-5.896
			c0-2.292,0.775-4.243,2.326-5.854C336.322,1.061,338.228,0.255,340.488,0.255z"/>
	</g>
	<g enable-background="new    ">
		<path fill="none" stroke="#FFFFFF" stroke-width="2" stroke-miterlimit="10" d="M347.032,39.474v60.261
			c0,4.695,0.327,7.819,0.985,9.375c0.656,1.556,1.628,2.716,2.917,3.48c1.287,0.765,3.639,1.146,7.056,1.146v2.948h-35.083v-2.948
			c3.521,0,5.886-0.354,7.096-1.064c1.208-0.709,2.168-1.883,2.877-3.521c0.71-1.637,1.064-4.775,1.064-9.416V70.832
			c0-8.132-0.236-13.399-0.709-15.802c-0.368-1.747-0.946-2.96-1.734-3.644c-0.789-0.682-1.866-1.023-3.232-1.023
			c-1.473,0-3.26,0.409-5.361,1.228l-1.104-2.948l21.759-9.17H347.032z M340.488,0.255c2.207,0,4.086,0.806,5.637,2.415
			c1.55,1.611,2.326,3.562,2.326,5.854c0,2.293-0.776,4.258-2.326,5.896c-1.551,1.637-3.43,2.456-5.637,2.456
			c-2.208,0-4.1-0.819-5.677-2.456c-1.576-1.638-2.365-3.603-2.365-5.896c0-2.292,0.775-4.243,2.326-5.854
			C336.322,1.061,338.228,0.255,340.488,0.255z"/>
	</g>
	<g enable-background="new    ">
		<path d="M41.271,194.353c8.461-10.589,16.528-15.884,24.203-15.884c3.941,0,7.332,1.023,10.17,3.07s5.098,5.418,6.78,10.112
			c1.155,3.274,1.734,8.297,1.734,15.064v32.014c0,4.748,0.367,7.971,1.104,9.661c0.578,1.365,1.511,2.43,2.799,3.193
			c1.287,0.765,3.666,1.146,7.135,1.146v2.948H59.481v-2.948h1.498c3.363,0,5.716-0.531,7.057-1.596
			c1.34-1.064,2.272-2.633,2.799-4.708c0.209-0.819,0.315-3.384,0.315-7.696v-30.703c0-6.822-0.855-11.776-2.562-14.861
			c-1.709-3.082-4.586-4.625-8.633-4.625c-6.256,0-12.483,3.549-18.685,10.644v39.546c0,5.076,0.288,8.216,0.867,9.416
			c0.735,1.584,1.746,2.742,3.035,3.479c1.287,0.737,3.902,1.104,7.845,1.104v2.948H17.304v-2.948h1.576
			c3.679,0,6.162-0.968,7.45-2.906c1.288-1.937,1.932-5.635,1.932-11.094v-27.838c0-9.006-0.197-14.492-0.591-16.457
			c-0.395-1.965-0.999-3.302-1.813-4.012c-0.815-0.709-1.905-1.064-3.271-1.064c-1.473,0-3.232,0.409-5.282,1.229l-1.183-2.948
			l21.759-9.17h3.391V194.353z"/>
	</g>
	<g enable-background="new    ">
		<path fill="none" stroke="#FFFFFF" stroke-width="2" stroke-miterlimit="10" d="M41.271,194.353
			c8.461-10.589,16.528-15.884,24.203-15.884c3.941,0,7.332,1.023,10.17,3.07s5.098,5.418,6.78,10.112
			c1.155,3.274,1.734,8.297,1.734,15.064v32.014c0,4.748,0.367,7.971,1.104,9.661c0.578,1.365,1.511,2.43,2.799,3.193
			c1.287,0.765,3.666,1.146,7.135,1.146v2.948H59.481v-2.948h1.498c3.363,0,5.716-0.531,7.057-1.596
			c1.34-1.064,2.272-2.633,2.799-4.708c0.209-0.819,0.315-3.384,0.315-7.696v-30.703c0-6.822-0.855-11.776-2.562-14.861
			c-1.709-3.082-4.586-4.625-8.633-4.625c-6.256,0-12.483,3.549-18.685,10.644v39.546c0,5.076,0.288,8.216,0.867,9.416
			c0.735,1.584,1.746,2.742,3.035,3.479c1.287,0.737,3.902,1.104,7.845,1.104v2.948H17.304v-2.948h1.576
			c3.679,0,6.162-0.968,7.45-2.906c1.288-1.937,1.932-5.635,1.932-11.094v-27.838c0-9.006-0.197-14.492-0.591-16.457
			c-0.395-1.965-0.999-3.302-1.813-4.012c-0.815-0.709-1.905-1.064-3.271-1.064c-1.473,0-3.232,0.409-5.282,1.229l-1.183-2.948
			l21.759-9.17h3.391V194.353z"/>
	</g>
	<g enable-background="new    ">
		<path d="M153.208,247.245c-3.521,3.82-6.965,6.563-10.327,8.229c-3.364,1.664-6.991,2.496-10.88,2.496
			c-7.884,0-14.771-3.424-20.656-10.275c-5.887-6.85-8.829-15.65-8.829-26.404c0-10.753,3.258-20.592,9.775-29.517
			c6.517-8.925,14.9-13.387,25.149-13.387c6.359,0,11.615,2.103,15.768,6.305v-13.837c0-8.568-0.197-13.837-0.591-15.803
			c-0.395-1.965-1.013-3.301-1.853-4.012c-0.842-0.709-1.893-1.064-3.154-1.064c-1.367,0-3.181,0.438-5.439,1.311l-1.024-2.865
			l21.522-9.17h3.548v86.707c0,8.788,0.197,14.151,0.591,16.089c0.395,1.938,1.025,3.289,1.893,4.053
			c0.867,0.765,1.878,1.146,3.035,1.146c1.419,0,3.312-0.464,5.677-1.393l0.867,2.865l-21.444,9.252h-3.627V247.245z
			 M153.208,241.513v-38.645c-0.315-3.711-1.261-7.096-2.838-10.152s-3.666-5.363-6.268-6.919s-5.138-2.333-7.608-2.333
			c-4.625,0-8.751,2.156-12.377,6.468c-4.783,5.677-7.175,13.974-7.175,24.89c0,11.027,2.312,19.475,6.938,25.341
			c4.624,5.868,9.775,8.802,15.452,8.802C144.115,248.964,148.74,246.481,153.208,241.513z"/>
	</g>
	<g enable-background="new    ">
		<path fill="none" stroke="#FFFFFF" stroke-width="2" stroke-miterlimit="10" d="M153.208,247.245
			c-3.521,3.82-6.965,6.563-10.327,8.229c-3.364,1.664-6.991,2.496-10.88,2.496c-7.884,0-14.771-3.424-20.656-10.275
			c-5.887-6.85-8.829-15.65-8.829-26.404c0-10.753,3.258-20.592,9.775-29.517c6.517-8.925,14.9-13.387,25.149-13.387
			c6.359,0,11.615,2.103,15.768,6.305v-13.837c0-8.568-0.197-13.837-0.591-15.803c-0.395-1.965-1.013-3.301-1.853-4.012
			c-0.842-0.709-1.893-1.064-3.154-1.064c-1.367,0-3.181,0.438-5.439,1.311l-1.024-2.865l21.522-9.17h3.548v86.707
			c0,8.788,0.197,14.151,0.591,16.089c0.395,1.938,1.025,3.289,1.893,4.053c0.867,0.765,1.878,1.146,3.035,1.146
			c1.419,0,3.312-0.464,5.677-1.393l0.867,2.865l-21.444,9.252h-3.627V247.245z M153.208,241.513v-38.645
			c-0.315-3.711-1.261-7.096-2.838-10.152s-3.666-5.363-6.268-6.919s-5.138-2.333-7.608-2.333c-4.625,0-8.751,2.156-12.377,6.468
			c-4.783,5.677-7.175,13.974-7.175,24.89c0,11.027,2.312,19.475,6.938,25.341c4.624,5.868,9.775,8.802,15.452,8.802
			C144.115,248.964,148.74,246.481,153.208,241.513z"/>
	</g>
	<g enable-background="new    ">
		<path d="M279.974,178.469v16.866c6.044-11.244,12.246-16.866,18.606-16.866c2.89,0,5.282,0.915,7.174,2.743
			c1.893,1.829,2.839,3.943,2.839,6.346c0,2.129-0.684,3.93-2.05,5.403c-1.368,1.474-2.996,2.21-4.889,2.21
			c-1.84,0-3.902-0.941-6.188-2.824s-3.981-2.824-5.085-2.824c-0.946,0-1.971,0.546-3.075,1.637
			c-2.365,2.239-4.809,5.924-7.332,11.054v35.943c0,4.149,0.499,7.287,1.498,9.416c0.683,1.474,1.893,2.702,3.627,3.685
			s4.23,1.473,7.489,1.473v2.948h-36.975v-2.948c3.678,0,6.411-0.6,8.199-1.801c1.312-0.872,2.233-2.264,2.759-4.176
			c0.263-0.928,0.395-3.574,0.395-7.941v-29.066c0-8.732-0.171-13.932-0.513-15.598c-0.342-1.664-0.973-2.878-1.892-3.643
			c-0.921-0.764-2.063-1.146-3.43-1.146c-1.63,0-3.469,0.409-5.519,1.229l-0.789-2.948l21.839-9.17H279.974z"/>
	</g>
	<g enable-background="new    ">
		<path fill="none" stroke="#FFFFFF" stroke-width="2" stroke-miterlimit="10" d="M279.974,178.469v16.866
			c6.044-11.244,12.246-16.866,18.606-16.866c2.89,0,5.282,0.915,7.174,2.743c1.893,1.829,2.839,3.943,2.839,6.346
			c0,2.129-0.684,3.93-2.05,5.403c-1.368,1.474-2.996,2.21-4.889,2.21c-1.84,0-3.902-0.941-6.188-2.824s-3.981-2.824-5.085-2.824
			c-0.946,0-1.971,0.546-3.075,1.637c-2.365,2.239-4.809,5.924-7.332,11.054v35.943c0,4.149,0.499,7.287,1.498,9.416
			c0.683,1.474,1.893,2.702,3.627,3.685s4.23,1.473,7.489,1.473v2.948h-36.975v-2.948c3.678,0,6.411-0.6,8.199-1.801
			c1.312-0.872,2.233-2.264,2.759-4.176c0.263-0.928,0.395-3.574,0.395-7.941v-29.066c0-8.732-0.171-13.932-0.513-15.598
			c-0.342-1.664-0.973-2.878-1.892-3.643c-0.921-0.764-2.063-1.146-3.43-1.146c-1.63,0-3.469,0.409-5.519,1.229l-0.789-2.948
			l21.839-9.17H279.974z"/>
	</g>
	<g enable-background="new    ">
		<path d="M360.662,178.469v25.546h-2.602c-1.998-8.024-4.561-13.482-7.687-16.376c-3.128-2.892-7.109-4.339-11.944-4.339
			c-3.68,0-6.649,1.01-8.908,3.029c-2.261,2.02-3.391,4.258-3.391,6.714c0,3.058,0.841,5.677,2.523,7.86
			c1.628,2.238,4.939,4.613,9.934,7.123l11.51,5.812c10.669,5.404,16.005,12.527,16.005,21.37c0,6.823-2.484,12.322-7.451,16.497
			c-4.967,4.176-10.524,6.264-16.674,6.264c-4.415,0-9.461-0.818-15.137-2.455c-1.734-0.545-3.153-0.819-4.258-0.819
			c-1.209,0-2.155,0.71-2.838,2.129h-2.602v-26.773h2.602c1.471,7.643,4.283,13.4,8.436,17.275
			c4.151,3.876,8.803,5.813,13.954,5.813c3.627,0,6.583-1.105,8.87-3.316c2.286-2.211,3.429-4.871,3.429-7.982
			c0-3.767-1.274-6.932-3.823-9.498c-2.55-2.564-7.635-5.812-15.255-9.742c-7.622-3.931-12.614-7.479-14.979-10.645
			c-2.365-3.111-3.548-7.041-3.548-11.79c0-6.167,2.036-11.325,6.11-15.475c4.072-4.147,9.342-6.223,15.807-6.223
			c2.838,0,6.28,0.628,10.328,1.884c2.681,0.818,4.467,1.228,5.36,1.228c0.841,0,1.498-0.19,1.972-0.573
			c0.473-0.381,1.024-1.229,1.655-2.538H360.662z"/>
	</g>
	<g enable-background="new    ">
		<path fill="none" stroke="#FFFFFF" stroke-width="2" stroke-miterlimit="10" d="M360.662,178.469v25.546h-2.602
			c-1.998-8.024-4.561-13.482-7.687-16.376c-3.128-2.892-7.109-4.339-11.944-4.339c-3.68,0-6.649,1.01-8.908,3.029
			c-2.261,2.02-3.391,4.258-3.391,6.714c0,3.058,0.841,5.677,2.523,7.86c1.628,2.238,4.939,4.613,9.934,7.123l11.51,5.812
			c10.669,5.404,16.005,12.527,16.005,21.37c0,6.823-2.484,12.322-7.451,16.497c-4.967,4.176-10.524,6.264-16.674,6.264
			c-4.415,0-9.461-0.818-15.137-2.455c-1.734-0.545-3.153-0.819-4.258-0.819c-1.209,0-2.155,0.71-2.838,2.129h-2.602v-26.773h2.602
			c1.471,7.643,4.283,13.4,8.436,17.275c4.151,3.876,8.803,5.813,13.954,5.813c3.627,0,6.583-1.105,8.87-3.316
			c2.286-2.211,3.429-4.871,3.429-7.982c0-3.767-1.274-6.932-3.823-9.498c-2.55-2.564-7.635-5.812-15.255-9.742
			c-7.622-3.931-12.614-7.479-14.979-10.645c-2.365-3.111-3.548-7.041-3.548-11.79c0-6.167,2.036-11.325,6.11-15.475
			c4.072-4.147,9.342-6.223,15.807-6.223c2.838,0,6.28,0.628,10.328,1.884c2.681,0.818,4.467,1.228,5.36,1.228
			c0.841,0,1.498-0.19,1.972-0.573c0.473-0.381,1.024-1.229,1.655-2.538H360.662z"/>
	</g>
</g>
</svg>
