<?xml version="1.0" encoding="utf-8"?>
<!-- Generator: Adobe Illustrator 16.0.0, SVG Export Plug-In . SVG Version: 6.00 Build 0)  -->
<!DOCTYPE svg PUBLIC "-//W3C//DTD SVG 1.1//EN" "http://www.w3.org/Graphics/SVG/1.1/DTD/svg11.dtd">
<svg version="1.1" id="Layer_1" xmlns="http://www.w3.org/2000/svg" xmlns:xlink="http://www.w3.org/1999/xlink" x="0px" y="0px"
	 width="369.105px" height="297px" viewBox="0 0 369.105 297" enable-background="new 0 0 369.105 297" xml:space="preserve">
<g enable-background="new    ">
	<path d="M91.532,5.148l1.183,26.036h-2.996c-0.579-4.585-1.367-7.86-2.365-9.825c-1.63-3.165-3.798-5.499-6.504-7
		c-2.708-1.5-6.268-2.251-10.683-2.251H55.109v84.823c0,6.824,0.709,11.081,2.129,12.772c1.997,2.292,5.071,3.439,9.224,3.439h3.706
		v3.029H24.835v-3.029h3.784c4.52,0,7.726-1.419,9.619-4.258c1.155-1.746,1.734-5.731,1.734-11.954V12.108H27.122
		c-4.994,0-8.542,0.382-10.644,1.146c-2.733,1.038-5.073,3.029-7.017,5.977c-1.945,2.947-3.102,6.933-3.469,11.954H2.997
		L4.258,5.148H91.532z"/>
</g>
<g enable-background="new    ">
	<path fill="none" stroke="#FFFFFF" stroke-width="2" stroke-miterlimit="10" d="M91.532,5.148l1.183,26.036h-2.996
		c-0.579-4.585-1.367-7.86-2.365-9.825c-1.63-3.165-3.798-5.499-6.504-7c-2.708-1.5-6.268-2.251-10.683-2.251H55.109v84.823
		c0,6.824,0.709,11.081,2.129,12.772c1.997,2.292,5.071,3.439,9.224,3.439h3.706v3.029H24.835v-3.029h3.784
		c4.52,0,7.726-1.419,9.619-4.258c1.155-1.746,1.734-5.731,1.734-11.954V12.108H27.122c-4.994,0-8.542,0.382-10.644,1.146
		c-2.733,1.038-5.073,3.029-7.017,5.977c-1.945,2.947-3.102,6.933-3.469,11.954H2.997L4.258,5.148H91.532z"/>
</g>
<g enable-background="new    ">
	<path d="M97.995,87.358c7.543,7.912,15.33,12.177,23.357,12.794c8.027,0.618,14.55-1.679,19.567-6.889
		c3.345-3.474,5.333-7.449,5.964-11.927c0.631-4.477-0.446-9.899-3.233-16.267l2.843-0.637c4.312,6.098,6.68,13.267,7.107,21.507
		c0.426,8.24-2.184,15.293-7.833,21.159c-6.132,6.368-13.769,9.341-22.911,8.916c-9.143-0.424-17.746-4.825-25.811-13.2
		c-8.733-9.069-13.306-18.467-13.714-28.194c-0.408-9.725,2.768-18.1,9.533-25.125c5.723-5.943,12.312-8.867,19.762-8.771
		c7.452,0.097,14.336,3.426,20.654,9.987L97.995,87.358z M94.762,84l23.636-24.546c-3.457-3.203-6.151-5.19-8.083-5.963
		c-3.011-1.196-6.03-1.457-9.059-0.781c-3.029,0.675-5.547,2.055-7.554,4.139c-3.085,3.204-4.646,7.314-4.683,12.331
		C88.982,74.197,90.896,79.138,94.762,84z"/>
</g>
<g enable-background="new    ">
	<path fill="none" stroke="#FFFFFF" stroke-width="2" stroke-miterlimit="10" d="M97.995,87.358
		c7.543,7.912,15.33,12.177,23.357,12.794c8.027,0.618,14.55-1.679,19.567-6.889c3.345-3.474,5.333-7.449,5.964-11.927
		c0.631-4.477-0.446-9.899-3.233-16.267l2.843-0.637c4.312,6.098,6.68,13.267,7.107,21.507c0.426,8.24-2.184,15.293-7.833,21.159
		c-6.132,6.368-13.769,9.341-22.911,8.916c-9.143-0.424-17.746-4.825-25.811-13.2c-8.733-9.069-13.306-18.467-13.714-28.194
		c-0.408-9.725,2.768-18.1,9.533-25.125c5.723-5.943,12.312-8.867,19.762-8.771c7.452,0.097,14.336,3.426,20.654,9.987
		L97.995,87.358z M94.762,84l23.636-24.546c-3.457-3.203-6.151-5.19-8.083-5.963c-3.011-1.196-6.03-1.457-9.059-0.781
		c-3.029,0.675-5.547,2.055-7.554,4.139c-3.085,3.204-4.646,7.314-4.683,12.331C88.982,74.197,90.896,79.138,94.762,84z"/>
</g>
<g enable-background="new    ">
	<path d="M183.123,54.929c5.255-5.458,8.357-8.597,9.303-9.416c2.365-2.074,4.914-3.685,7.647-4.831
		c2.732-1.146,5.44-1.719,8.12-1.719c4.52,0,8.409,1.365,11.668,4.094c3.258,2.73,5.44,6.687,6.544,11.872
		c5.413-6.55,9.985-10.849,13.718-12.896c3.731-2.047,7.568-3.07,11.51-3.07c3.836,0,7.24,1.023,10.209,3.07
		c2.969,2.047,5.322,5.391,7.056,10.03c1.155,3.167,1.734,8.134,1.734,14.901v32.259c0,4.695,0.341,7.915,1.025,9.661
		c0.525,1.202,1.498,2.225,2.917,3.07c1.419,0.847,3.731,1.269,6.938,1.269v2.948h-35.635v-2.948h1.498
		c3.101,0,5.519-0.626,7.253-1.883c1.208-0.873,2.076-2.265,2.602-4.176c0.209-0.928,0.315-3.574,0.315-7.942V66.964
		c0-6.112-0.709-10.425-2.129-12.936c-2.05-3.493-5.335-5.24-9.854-5.24c-2.787,0-5.585,0.724-8.396,2.17
		c-2.812,1.447-6.216,4.134-10.209,8.064l-0.158,0.901l0.158,3.521v35.78c0,5.131,0.276,8.324,0.828,9.58
		c0.552,1.256,1.589,2.307,3.114,3.152c1.524,0.847,4.125,1.269,7.805,1.269v2.948h-36.502v-2.948c3.994,0,6.741-0.491,8.239-1.474
		s2.535-2.456,3.114-4.421c0.262-0.927,0.394-3.629,0.394-8.105V66.964c0-6.112-0.867-10.507-2.602-13.182
		c-2.313-3.493-5.546-5.24-9.697-5.24c-2.838,0-5.65,0.792-8.436,2.375c-4.363,2.402-7.726,5.104-10.091,8.105v40.201
		c0,4.913,0.328,8.105,0.985,9.58c0.657,1.474,1.628,2.579,2.917,3.316c1.287,0.737,3.902,1.105,7.844,1.105v2.948h-35.713v-2.948
		c3.311,0,5.623-0.368,6.938-1.105c1.313-0.737,2.312-1.91,2.996-3.521c0.682-1.609,1.025-4.734,1.025-9.375V70.567
		c0-8.241-0.237-13.563-0.709-15.966c-0.369-1.801-0.946-3.042-1.735-3.725c-0.788-0.682-1.866-1.023-3.232-1.023
		c-1.472,0-3.232,0.409-5.282,1.228l-1.183-2.948l21.759-9.17h3.39V54.929z"/>
</g>
<g enable-background="new    ">
	<path fill="none" stroke="#FFFFFF" stroke-width="2" stroke-miterlimit="10" d="M183.123,54.929
		c5.255-5.458,8.357-8.597,9.303-9.416c2.365-2.074,4.914-3.685,7.647-4.831c2.732-1.146,5.44-1.719,8.12-1.719
		c4.52,0,8.409,1.365,11.668,4.094c3.258,2.73,5.44,6.687,6.544,11.872c5.413-6.55,9.985-10.849,13.718-12.896
		c3.731-2.047,7.568-3.07,11.51-3.07c3.836,0,7.24,1.023,10.209,3.07c2.969,2.047,5.322,5.391,7.056,10.03
		c1.155,3.167,1.734,8.134,1.734,14.901v32.259c0,4.695,0.341,7.915,1.025,9.661c0.525,1.202,1.498,2.225,2.917,3.07
		c1.419,0.847,3.731,1.269,6.938,1.269v2.948h-35.635v-2.948h1.498c3.101,0,5.519-0.626,7.253-1.883
		c1.208-0.873,2.076-2.265,2.602-4.176c0.209-0.928,0.315-3.574,0.315-7.942V66.964c0-6.112-0.709-10.425-2.129-12.936
		c-2.05-3.493-5.335-5.24-9.854-5.24c-2.787,0-5.585,0.724-8.396,2.17c-2.812,1.447-6.216,4.134-10.209,8.064l-0.158,0.901
		l0.158,3.521v35.78c0,5.131,0.276,8.324,0.828,9.58c0.552,1.256,1.589,2.307,3.114,3.152c1.524,0.847,4.125,1.269,7.805,1.269
		v2.948h-36.502v-2.948c3.994,0,6.741-0.491,8.239-1.474s2.535-2.456,3.114-4.421c0.262-0.927,0.394-3.629,0.394-8.105V66.964
		c0-6.112-0.867-10.507-2.602-13.182c-2.313-3.493-5.546-5.24-9.697-5.24c-2.838,0-5.65,0.792-8.436,2.375
		c-4.363,2.402-7.726,5.104-10.091,8.105v40.201c0,4.913,0.328,8.105,0.985,9.58c0.657,1.474,1.628,2.579,2.917,3.316
		c1.287,0.737,3.902,1.105,7.844,1.105v2.948h-35.713v-2.948c3.311,0,5.623-0.368,6.938-1.105c1.313-0.737,2.312-1.91,2.996-3.521
		c0.682-1.609,1.025-4.734,1.025-9.375V70.567c0-8.241-0.237-13.563-0.709-15.966c-0.369-1.801-0.946-3.042-1.735-3.725
		c-0.788-0.682-1.866-1.023-3.232-1.023c-1.472,0-3.232,0.409-5.282,1.228l-1.183-2.948l21.759-9.17h3.39V54.929z"/>
</g>
<g enable-background="new    ">
	<path d="M283.201,48.625l22.232-9.334h2.996v17.521c3.731-6.604,7.476-11.23,11.234-13.878c3.757-2.647,7.712-3.971,11.865-3.971
		c7.253,0,13.297,2.948,18.133,8.843c5.939,7.205,8.909,16.594,8.909,28.165c0,12.937-3.575,23.635-10.722,32.096
		c-5.887,6.932-13.298,10.398-22.232,10.398c-3.89,0-7.253-0.573-10.091-1.719c-2.103-0.819-4.468-2.457-7.095-4.913v22.843
		c0,5.13,0.302,8.392,0.906,9.784c0.604,1.392,1.656,2.497,3.154,3.315c1.498,0.819,4.218,1.229,8.16,1.229v3.029h-37.842v-3.029
		h1.971c2.89,0.054,5.361-0.52,7.411-1.719c0.998-0.602,1.773-1.57,2.326-2.907c0.552-1.338,0.828-4.736,0.828-10.193V63.28
		c0-4.858-0.21-7.942-0.631-9.252c-0.421-1.31-1.091-2.293-2.01-2.948c-0.92-0.655-2.168-0.982-3.745-0.982
		c-1.262,0-2.865,0.382-4.809,1.146L283.201,48.625z M308.43,61.643v28.001c0,6.059,0.236,10.044,0.709,11.954
		c0.735,3.166,2.535,5.95,5.4,8.351c2.864,2.403,6.477,3.603,10.84,3.603c5.255,0,9.512-2.129,12.771-6.386
		c4.257-5.567,6.386-13.399,6.386-23.499c0-11.462-2.418-20.277-7.253-26.446c-3.364-4.257-7.359-6.386-11.983-6.386
		c-2.523,0-5.02,0.655-7.49,1.965C315.919,53.783,312.792,56.73,308.43,61.643z"/>
</g>
<g enable-background="new    ">
	<path fill="none" stroke="#FFFFFF" stroke-width="2" stroke-miterlimit="10" d="M283.201,48.625l22.232-9.334h2.996v17.521
		c3.731-6.604,7.476-11.23,11.234-13.878c3.757-2.647,7.712-3.971,11.865-3.971c7.253,0,13.297,2.948,18.133,8.843
		c5.939,7.205,8.909,16.594,8.909,28.165c0,12.937-3.575,23.635-10.722,32.096c-5.887,6.932-13.298,10.398-22.232,10.398
		c-3.89,0-7.253-0.573-10.091-1.719c-2.103-0.819-4.468-2.457-7.095-4.913v22.843c0,5.13,0.302,8.392,0.906,9.784
		c0.604,1.392,1.656,2.497,3.154,3.315c1.498,0.819,4.218,1.229,8.16,1.229v3.029h-37.842v-3.029h1.971
		c2.89,0.054,5.361-0.52,7.411-1.719c0.998-0.602,1.773-1.57,2.326-2.907c0.552-1.338,0.828-4.736,0.828-10.193V63.28
		c0-4.858-0.21-7.942-0.631-9.252c-0.421-1.31-1.091-2.293-2.01-2.948c-0.92-0.655-2.168-0.982-3.745-0.982
		c-1.262,0-2.865,0.382-4.809,1.146L283.201,48.625z M308.43,61.643v28.001c0,6.059,0.236,10.044,0.709,11.954
		c0.735,3.166,2.535,5.95,5.4,8.351c2.864,2.403,6.477,3.603,10.84,3.603c5.255,0,9.512-2.129,12.771-6.386
		c4.257-5.567,6.386-13.399,6.386-23.499c0-11.462-2.418-20.277-7.253-26.446c-3.364-4.257-7.359-6.386-11.983-6.386
		c-2.523,0-5.02,0.655-7.49,1.965C315.919,53.783,312.792,56.73,308.43,61.643z"/>
</g>
<g enable-background="new    ">
	<path d="M25.776,188.526c7.729-8.027,16.873-11.424,27.427-10.188c8.993,1.08,16.743,4.998,23.247,11.752
		c4.571,4.746,8.101,10.691,10.592,17.831c2.489,7.14,3.001,13.942,1.533,20.406s-4.563,12.148-9.282,17.05
		c-7.693,7.988-16.873,11.154-27.539,9.494c-8.993-1.389-16.705-5.422-23.135-12.1c-4.683-4.863-8.176-10.902-10.48-18.12
		c-2.305-7.217-2.666-13.942-1.087-20.175C18.632,198.243,21.539,192.926,25.776,188.526z M27.671,194.084
		c-1.97,2.047-3.364,4.709-4.181,7.989c-0.818,3.28-0.371,7.083,1.338,11.405c1.71,4.322,4.869,8.877,9.477,13.662
		c7.434,7.72,15.322,12.843,23.665,15.371c8.344,2.527,14.93,1.283,19.762-3.734c3.604-3.744,5.092-8.375,4.459-13.895
		c-0.631-5.519-4.571-12.042-11.818-19.568c-9.067-9.416-18.154-14.8-27.26-16.151C36.906,188.199,31.759,189.84,27.671,194.084z"/>
</g>
<g enable-background="new    ">
	<path fill="none" stroke="#FFFFFF" stroke-width="2" stroke-miterlimit="10" d="M25.776,188.526
		c7.729-8.027,16.873-11.424,27.427-10.188c8.993,1.08,16.743,4.998,23.247,11.752c4.571,4.746,8.101,10.691,10.592,17.831
		c2.489,7.14,3.001,13.942,1.533,20.406s-4.563,12.148-9.282,17.05c-7.693,7.988-16.873,11.154-27.539,9.494
		c-8.993-1.389-16.705-5.422-23.135-12.1c-4.683-4.863-8.176-10.902-10.48-18.12c-2.305-7.217-2.666-13.942-1.087-20.175
		C18.632,198.243,21.539,192.926,25.776,188.526z M27.671,194.084c-1.97,2.047-3.364,4.709-4.181,7.989
		c-0.818,3.28-0.371,7.083,1.338,11.405c1.71,4.322,4.869,8.877,9.477,13.662c7.434,7.72,15.322,12.843,23.665,15.371
		c8.344,2.527,14.93,1.283,19.762-3.734c3.604-3.744,5.092-8.375,4.459-13.895c-0.631-5.519-4.571-12.042-11.818-19.568
		c-9.067-9.416-18.154-14.8-27.26-16.151C36.906,188.199,31.759,189.84,27.671,194.084z"/>
</g>
<g enable-background="new    ">
	<path d="M246.015,177.958v16.866c6.043-11.244,12.246-16.866,18.606-16.866c2.89,0,5.282,0.915,7.174,2.743
		c1.892,1.829,2.838,3.943,2.838,6.346c0,2.129-0.684,3.93-2.05,5.403c-1.367,1.474-2.996,2.21-4.888,2.21
		c-1.84,0-3.903-0.941-6.189-2.824s-3.981-2.824-5.085-2.824c-0.946,0-1.971,0.546-3.075,1.637
		c-2.365,2.239-4.809,5.924-7.332,11.054v35.943c0,4.149,0.499,7.287,1.498,9.416c0.682,1.474,1.892,2.702,3.626,3.685
		s4.23,1.473,7.49,1.473v2.948h-36.975v-2.948c3.678,0,6.412-0.6,8.199-1.801c1.313-0.872,2.233-2.264,2.759-4.176
		c0.262-0.928,0.394-3.574,0.394-7.941v-29.066c0-8.732-0.171-13.932-0.513-15.598c-0.342-1.664-0.973-2.878-1.892-3.643
		c-0.92-0.764-2.063-1.146-3.429-1.146c-1.63,0-3.469,0.409-5.519,1.229l-0.789-2.948l21.838-9.17H246.015z"/>
</g>
<g enable-background="new    ">
	<path fill="none" stroke="#FFFFFF" stroke-width="2" stroke-miterlimit="10" d="M246.015,177.958v16.866
		c6.043-11.244,12.246-16.866,18.606-16.866c2.89,0,5.282,0.915,7.174,2.743c1.892,1.829,2.838,3.943,2.838,6.346
		c0,2.129-0.684,3.93-2.05,5.403c-1.367,1.474-2.996,2.21-4.888,2.21c-1.84,0-3.903-0.941-6.189-2.824s-3.981-2.824-5.085-2.824
		c-0.946,0-1.971,0.546-3.075,1.637c-2.365,2.239-4.809,5.924-7.332,11.054v35.943c0,4.149,0.499,7.287,1.498,9.416
		c0.682,1.474,1.892,2.702,3.626,3.685s4.23,1.473,7.49,1.473v2.948h-36.975v-2.948c3.678,0,6.412-0.6,8.199-1.801
		c1.313-0.872,2.233-2.264,2.759-4.176c0.262-0.928,0.394-3.574,0.394-7.941v-29.066c0-8.732-0.171-13.932-0.513-15.598
		c-0.342-1.664-0.973-2.878-1.892-3.643c-0.92-0.764-2.063-1.146-3.429-1.146c-1.63,0-3.469,0.409-5.519,1.229l-0.789-2.948
		l21.838-9.17H246.015z"/>
</g>
<g enable-background="new    ">
	<path d="M192.498,244.359c-7.411,5.95-12.062,9.389-13.955,10.316c-2.838,1.363-5.861,2.047-9.066,2.047
		c-4.994,0-9.106-1.773-12.338-5.322c-3.232-3.547-4.848-8.215-4.848-14c0-3.656,0.788-6.823,2.365-9.498
		c2.155-3.711,5.899-7.205,11.235-10.48c5.333-3.275,14.203-7.258,26.608-11.953v-2.947c0-7.479-1.144-12.609-3.43-15.394
		s-5.611-4.175-9.973-4.175c-3.311,0-5.94,0.928-7.884,2.783c-1.998,1.856-2.996,3.984-2.996,6.387l0.158,4.748
		c0,2.512-0.619,4.449-1.853,5.813c-1.235,1.365-2.852,2.047-4.849,2.047c-1.945,0-3.535-0.708-4.77-2.129
		c-1.235-1.419-1.853-3.356-1.853-5.813c0-4.693,2.312-9.006,6.938-12.936c4.625-3.93,11.116-5.896,19.473-5.896
		c6.412,0,11.668,1.12,15.768,3.356c3.101,1.693,5.387,4.34,6.859,7.942c0.946,2.348,1.419,7.151,1.419,14.41v25.464
		c0,7.15,0.13,11.531,0.394,13.141c0.262,1.611,0.696,2.689,1.301,3.234c0.604,0.546,1.301,0.818,2.089,0.818
		c0.84,0,1.577-0.19,2.208-0.572c1.104-0.709,3.232-2.703,6.386-5.978v4.585c-5.887,8.188-11.51,12.281-16.872,12.281
		c-2.576,0-4.625-0.929-6.149-2.783C193.337,252.002,192.549,248.836,192.498,244.359z M192.498,239.037v-28.574
		c-7.937,3.275-13.062,5.596-15.374,6.959c-4.153,2.402-7.123,4.913-8.909,7.533c-1.788,2.619-2.681,5.485-2.681,8.597
		c0,3.931,1.129,7.192,3.39,9.784c2.259,2.594,4.861,3.889,7.805,3.889C180.723,247.225,185.979,244.496,192.498,239.037z"/>
</g>
<g enable-background="new    ">
	<path fill="none" stroke="#FFFFFF" stroke-width="2" stroke-miterlimit="10" d="M192.498,244.359
		c-7.411,5.95-12.062,9.389-13.955,10.316c-2.838,1.363-5.861,2.047-9.066,2.047c-4.994,0-9.106-1.773-12.338-5.322
		c-3.232-3.547-4.848-8.215-4.848-14c0-3.656,0.788-6.823,2.365-9.498c2.155-3.711,5.899-7.205,11.235-10.48
		c5.333-3.275,14.203-7.258,26.608-11.953v-2.947c0-7.479-1.144-12.609-3.43-15.394s-5.611-4.175-9.973-4.175
		c-3.311,0-5.94,0.928-7.884,2.783c-1.998,1.856-2.996,3.984-2.996,6.387l0.158,4.748c0,2.512-0.619,4.449-1.853,5.813
		c-1.235,1.365-2.852,2.047-4.849,2.047c-1.945,0-3.535-0.708-4.77-2.129c-1.235-1.419-1.853-3.356-1.853-5.813
		c0-4.693,2.312-9.006,6.938-12.936c4.625-3.93,11.116-5.896,19.473-5.896c6.412,0,11.668,1.12,15.768,3.356
		c3.101,1.693,5.387,4.34,6.859,7.942c0.946,2.348,1.419,7.151,1.419,14.41v25.464c0,7.15,0.13,11.531,0.394,13.141
		c0.262,1.611,0.696,2.689,1.301,3.234c0.604,0.546,1.301,0.818,2.089,0.818c0.84,0,1.577-0.19,2.208-0.572
		c1.104-0.709,3.232-2.703,6.386-5.978v4.585c-5.887,8.188-11.51,12.281-16.872,12.281c-2.576,0-4.625-0.929-6.149-2.783
		C193.337,252.002,192.549,248.836,192.498,244.359z M192.498,239.037v-28.574c-7.937,3.275-13.062,5.596-15.374,6.959
		c-4.153,2.402-7.123,4.913-8.909,7.533c-1.788,2.619-2.681,5.485-2.681,8.597c0,3.931,1.129,7.192,3.39,9.784
		c2.259,2.594,4.861,3.889,7.805,3.889C180.723,247.225,185.979,244.496,192.498,239.037z"/>
</g>
<g enable-background="new    ">
	<path d="M119.353,177.958v16.866c6.043-11.244,12.246-16.866,18.606-16.866c2.89,0,5.282,0.915,7.174,2.743
		c1.892,1.829,2.838,3.943,2.838,6.346c0,2.129-0.684,3.93-2.05,5.403c-1.367,1.474-2.996,2.21-4.888,2.21
		c-1.84,0-3.903-0.941-6.189-2.824s-3.981-2.824-5.085-2.824c-0.946,0-1.971,0.546-3.075,1.637
		c-2.365,2.239-4.809,5.924-7.332,11.054v35.943c0,4.149,0.499,7.287,1.498,9.416c0.682,1.474,1.892,2.702,3.626,3.685
		s4.23,1.473,7.49,1.473v2.948H94.992v-2.948c3.678,0,6.412-0.6,8.199-1.801c1.313-0.872,2.233-2.264,2.759-4.176
		c0.262-0.928,0.394-3.574,0.394-7.941v-29.066c0-8.732-0.171-13.932-0.513-15.598c-0.342-1.664-0.973-2.878-1.892-3.643
		c-0.92-0.764-2.063-1.146-3.429-1.146c-1.63,0-3.469,0.409-5.519,1.229l-0.789-2.948l21.838-9.17H119.353z"/>
</g>
<g enable-background="new    ">
	<path fill="none" stroke="#FFFFFF" stroke-width="2" stroke-miterlimit="10" d="M119.353,177.958v16.866
		c6.043-11.244,12.246-16.866,18.606-16.866c2.89,0,5.282,0.915,7.174,2.743c1.892,1.829,2.838,3.943,2.838,6.346
		c0,2.129-0.684,3.93-2.05,5.403c-1.367,1.474-2.996,2.21-4.888,2.21c-1.84,0-3.903-0.941-6.189-2.824s-3.981-2.824-5.085-2.824
		c-0.946,0-1.971,0.546-3.075,1.637c-2.365,2.239-4.809,5.924-7.332,11.054v35.943c0,4.149,0.499,7.287,1.498,9.416
		c0.682,1.474,1.892,2.702,3.626,3.685s4.23,1.473,7.49,1.473v2.948H94.992v-2.948c3.678,0,6.412-0.6,8.199-1.801
		c1.313-0.872,2.233-2.264,2.759-4.176c0.262-0.928,0.394-3.574,0.394-7.941v-29.066c0-8.732-0.171-13.932-0.513-15.598
		c-0.342-1.664-0.973-2.878-1.892-3.643c-0.92-0.764-2.063-1.146-3.429-1.146c-1.63,0-3.469,0.409-5.519,1.229l-0.789-2.948
		l21.838-9.17H119.353z"/>
</g>
<g enable-background="new    ">
	<path d="M279.695,180.169h33.664v3.029h-1.655c-2.365,0-4.139,0.532-5.322,1.597s-1.774,2.389-1.774,3.971
		c0,2.129,0.867,5.076,2.602,8.843l17.581,37.827l16.162-41.43c0.894-2.238,1.34-4.448,1.34-6.632c0-0.983-0.185-1.72-0.552-2.211
		c-0.421-0.601-1.078-1.077-1.971-1.433c-0.895-0.354-2.471-0.532-4.73-0.532v-3.029h23.494v3.029
		c-1.945,0.219-3.443,0.655-4.494,1.31c-1.052,0.655-2.208,1.883-3.469,3.685c-0.473,0.765-1.368,2.866-2.681,6.305l-29.407,74.835
		c-2.838,7.258-6.557,12.744-11.155,16.456c-4.6,3.712-9.027,5.568-13.285,5.568c-3.102,0-5.65-0.929-7.647-2.784
		c-1.998-1.856-2.996-3.985-2.996-6.387c0-2.292,0.722-4.134,2.168-5.526c1.445-1.392,3.43-2.088,5.953-2.088
		c1.734,0,4.1,0.601,7.095,1.802c2.102,0.818,3.416,1.228,3.942,1.228c1.577,0,3.298-0.847,5.164-2.538
		c1.865-1.692,3.745-4.967,5.637-9.824l5.125-13.02l-25.938-56.576c-0.789-1.69-2.05-3.793-3.784-6.304
		c-1.314-1.91-2.393-3.193-3.232-3.849c-1.21-0.872-3.154-1.637-5.834-2.292V180.169z"/>
</g>
<g enable-background="new    ">
	<path fill="none" stroke="#FFFFFF" stroke-width="2" stroke-miterlimit="10" d="M279.695,180.169h33.664v3.029h-1.655
		c-2.365,0-4.139,0.532-5.322,1.597s-1.774,2.389-1.774,3.971c0,2.129,0.867,5.076,2.602,8.843l17.581,37.827l16.162-41.43
		c0.894-2.238,1.34-4.448,1.34-6.632c0-0.983-0.185-1.72-0.552-2.211c-0.421-0.601-1.078-1.077-1.971-1.433
		c-0.895-0.354-2.471-0.532-4.73-0.532v-3.029h23.494v3.029c-1.945,0.219-3.443,0.655-4.494,1.31
		c-1.052,0.655-2.208,1.883-3.469,3.685c-0.473,0.765-1.368,2.866-2.681,6.305l-29.407,74.835
		c-2.838,7.258-6.557,12.744-11.155,16.456c-4.6,3.712-9.027,5.568-13.285,5.568c-3.102,0-5.65-0.929-7.647-2.784
		c-1.998-1.856-2.996-3.985-2.996-6.387c0-2.292,0.722-4.134,2.168-5.526c1.445-1.392,3.43-2.088,5.953-2.088
		c1.734,0,4.1,0.601,7.095,1.802c2.102,0.818,3.416,1.228,3.942,1.228c1.577,0,3.298-0.847,5.164-2.538
		c1.865-1.692,3.745-4.967,5.637-9.824l5.125-13.02l-25.938-56.576c-0.789-1.69-2.05-3.793-3.784-6.304
		c-1.314-1.91-2.393-3.193-3.232-3.849c-1.21-0.872-3.154-1.637-5.834-2.292V180.169z"/>
</g>
</svg>
